<?xml version="1.0" encoding="iso-8859-1"?>
<!-- Generator: Adobe Illustrator 19.0.0, SVG Export Plug-In . SVG Version: 6.00 Build 0)  -->
<svg version="1.1" id="Capa_1" xmlns="http://www.w3.org/2000/svg" xmlns:xlink="http://www.w3.org/1999/xlink" x="0px" y="0px"
	 viewBox="0 0 512 512" style="enable-background:new 0 0 512 512;" xml:space="preserve">
<path style="fill:#6EDCF9;" d="M504.5,337.452c0,6.627-5.372,12.001-12.001,12.001H19.501c-6.627,0-12.001-5.373-12.001-12.001
	V174.548c0-6.628,5.373-12.001,12.001-12.001h472.998c6.628,0,12.001,5.372,12.001,12.001V337.452z"/>
<path style="fill:#45C6E5;" d="M27.502,337.452V174.548c0-6.628,5.373-12.001,12.001-12.001H19.501
	c-6.627,0-12.001,5.372-12.001,12.001v162.905c0,6.627,5.373,12.001,12.001,12.001h20.001
	C32.875,349.453,27.502,344.08,27.502,337.452z"/>
<path d="M408.721,287.72c0.475,0.545,1.161,0.855,1.883,0.855h10.135c1.253,0,2.311-0.926,2.478-2.168l3.55-26.574
	c22.79-35.449,22.287-33.727,21.3-35.537c-0.921-1.686-1.513-1.303-13.059-1.303c-0.845,0-1.633,0.428-2.094,1.135l-11.406,17.491
	c-7.916-18.207-7.552-18.626-9.737-18.626h-10.846c-0.853,0-1.648,0.436-2.107,1.154c-0.459,0.719-0.521,1.623-0.162,2.396
	l13.536,29.244l-4.066,29.951C408.03,286.455,408.247,287.177,408.721,287.72z"/>
<path d="M281.312,237.569c1.234,0,2.284-0.902,2.471-2.123c1.588-10.38,1.861-10.449,0.89-11.581
	c-0.475-0.553-1.167-0.871-1.897-0.871h-33.17c-1.248,0-2.305,0.92-2.476,2.156c-9.062,65.229-8.893,61.345-7.824,62.568
	c1.032,1.185-0.922,0.858,34.895,0.858c1.248,0,2.305-0.92,2.476-2.156c1.443-10.395,1.706-10.447,0.738-11.558
	c-1.029-1.181-0.468-0.859-22.092-0.859l1.418-11.333h17.861c1.247,0,2.304-0.92,2.475-2.156c1.445-10.38,1.712-10.446,0.742-11.56
	c-0.475-0.545-1.162-0.859-1.886-0.859h-16.965l1.417-10.526L281.312,237.569L281.312,237.569z"/>
<path d="M113.455,287.48c0.465,0.685,1.24,1.096,2.068,1.096c10.379,0,11.495,0.454,12.287-1.6l6.875-17.831h13.763l2.155,17.241
	c0.156,1.252,1.22,2.19,2.48,2.19h9.576c0.007,0,0.013,0,0.02,0c0.173,0,0.342-0.018,0.505-0.051c0.14,0.025,0.28,0.051,0.426,0.051
	h10.345c1.084,0,2.044-0.697,2.378-1.729l10.979-33.893l5.333,33.514c0.193,1.215,1.24,2.108,2.469,2.108
	c9.587,0,10.842,0.47,11.643-1.598l13.954-36.047l2.279,35.307c0.084,1.314,1.176,2.338,2.494,2.338h9.57
	c1.441,0,2.585-1.216,2.495-2.654l-3.738-60.582c-0.081-1.318-1.174-2.346-2.495-2.346c-14.004,0-14.861-0.494-15.679,1.588
	l-12.94,33.023l-4.939-32.486c-0.186-1.223-1.236-2.125-2.472-2.125h-11.631c-1.078,0-2.035,0.691-2.374,1.715l-17.247,52.128
	l-6.403-51.649c-0.155-1.252-1.22-2.193-2.481-2.193h-15.531c-1.023,0-1.944,0.625-2.323,1.576l-21.027,52.874l2.457-18.421
	c0.096-0.713-0.122-1.434-0.597-1.977c-0.475-0.543-1.16-0.854-1.881-0.854H94.96c-1.246,0-2.302,0.918-2.476,2.152l-1.118,7.951
	c-0.102,0.717,0.113,1.441,0.589,1.988c0.475,0.547,1.163,0.859,1.887,0.859h8.657l-0.806,4.451
	c-1.741,1.047-5.669,1.418-8.488,1.418c-0.066,0-6.784-0.129-11.129-4.656c-2.623-2.734-3.856-6.479-3.662-11.13
	c0.522-12.558,14.01-22.772,30.065-22.772c3.426,0,6.925,0.455,10.401,1.355c0.685,0.178,1.407,0.059,1.996-0.328
	c0.59-0.385,0.988-1.002,1.1-1.697l1.434-9.005c0.203-1.273-0.596-2.492-1.845-2.814c-3.491-0.9-7.666-1.377-12.073-1.377
	c-43.04,0-54.919,39.205-39.398,56.603c6.848,7.674,16.841,10.399,23.34,10.399l0.364-0.004c0.508,0.029,1.02,0.041,1.532,0.041
	c0.001,0,0,0,0.001,0c7.418,0,14.989-2.752,17.494-4.086l0.317-0.168C112.933,286.088,113.033,286.859,113.455,287.48z
	 M145.213,242.632l1.618,13.561h-6.682L145.213,242.632z"/>
<path d="M380.612,222.388c-0.317-0.012-0.642-0.018-0.97-0.018c-5.525,0-24.006,2.176-29.791,30.178
	c-2.242,10.858-1.038,19.645,3.578,26.121c5.23,7.334,13.192,9.356,17.47,9.907c1.045,0.137,2.129,0.205,3.223,0.205
	C410.718,288.781,417.329,223.836,380.612,222.388z M374.447,274.859c-0.334,0-0.639-0.016-0.912-0.045
	c-2.096-0.221-5.043-1.06-7.184-3.805c-2.492-3.197-3.275-8.182-2.33-14.816c2.239-15.663,10.313-19.843,14.73-19.843l0.295,0.006
	c1.462,0.008,5.171,0.373,8.013,3.611C394.492,248.444,389.859,274.859,374.447,274.859z"/>
<path d="M342.467,252.957c2.576-1.623,4.788-3.641,5.767-11.948c0.515-4.383-0.94-8.751-4.096-12.3
	c-3.088-3.471-7.44-5.715-11.089-5.715h-25.755c-1.247,0-2.305,0.92-2.476,2.156l-8.416,60.582c-0.1,0.717,0.115,1.441,0.591,1.986
	c0.475,0.545,1.162,0.858,1.885,0.858h26.077c13.303,0,20.665-9.048,22.061-18.013c1.493-9.593-2.402-14.298-5.463-17.003v-0.002
	C341.844,253.347,342.152,253.154,342.467,252.957z M332.443,267.528c-0.082,0.664-0.999,6.475-7.892,6.475h-11.54l1.617-11.333
	c13.882,0,14.633-0.492,16.552,1.676C332.184,265.481,332.538,266.762,332.443,267.528z M325.157,248.095h-8.499l1.417-10.526
	c10.492,0,11.616-0.466,13.51,1.676C334.403,242.434,332.252,248.095,325.157,248.095z"/>
<path d="M492.499,155.046H273.501c-4.143,0-7.5,3.358-7.5,7.5c0,4.142,3.357,7.5,7.5,7.5h218.997c2.482,0,4.5,2.018,4.5,4.5v67.063
	c0,4.143,3.357,7.5,7.5,7.5s7.5-3.357,7.5-7.5v-67.063C512,163.794,503.251,155.046,492.499,155.046z"/>
<path d="M504.5,269.112c-4.143,0-7.5,3.357-7.5,7.5v60.84c0,2.482-2.018,4.5-4.5,4.5H19.501c-2.481,0-4.5-2.018-4.5-4.5V174.548
	c0-2.482,2.019-4.5,4.5-4.5h218.997c4.143,0,7.5-3.358,7.5-7.5c0-4.142-3.357-7.5-7.5-7.5H19.501C8.749,155.046,0,163.794,0,174.548
	v162.905c0,10.753,8.749,19.501,19.501,19.501h472.998c10.753,0,19.501-8.749,19.501-19.501v-60.84
	C512,272.469,508.642,269.112,504.5,269.112z"/>
<g>
</g>
<g>
</g>
<g>
</g>
<g>
</g>
<g>
</g>
<g>
</g>
<g>
</g>
<g>
</g>
<g>
</g>
<g>
</g>
<g>
</g>
<g>
</g>
<g>
</g>
<g>
</g>
<g>
</g>
</svg>
